<svg width="97" height="30" viewBox="0 0 97 30" fill="none" xmlns="http://www.w3.org/2000/svg">
<g clip-path="url(#clip0_92_3564)">
<path d="M20.2859 16.1194L25.715 26.6656L14.8142 19.7571" fill="url(#paint0_linear_92_3564)"/>
<path d="M14.2771 4.44434L5.44946 26.2825C5.44946 26.2825 27.3525 5.32791 49.7378 4.80101C49.7378 4.80101 31.3934 4.724 17.4345 10.597L14.2771 4.44434Z" fill="url(#paint1_linear_92_3564)"/>
<path d="M0 10.6619L8.68784 16.0687L10.8988 10.6619H0Z" fill="#F4F4F4"/>
<path d="M40.5656 13.4949L39.8279 15.6673H36.9056L37.6433 13.4949H35.329L33.2437 19.5583H35.56L36.3098 17.3879H39.2321L38.4823 19.5583H40.7966L42.8819 13.4949H40.5656Z" fill="url(#paint2_linear_92_3564)"/>
<path d="M44.4808 17.3757H48.0192L48.6048 15.6775H45.0645L45.2306 15.2033H49.916L50.4997 13.4949H43.4756L41.3923 19.5583H48.4164L49 17.8499H44.3146L44.4808 17.3757Z" fill="url(#paint3_linear_92_3564)"/>
<path d="M53.4119 13.4949H51.0955L49.0122 19.5583H55.4283L56.014 17.8499H51.9122L53.4119 13.4949Z" fill="url(#paint4_linear_92_3564)"/>
<path d="M65.314 14.2609C65.3034 14.1367 65.2754 14.0146 65.2309 13.8982C65.19 13.791 65.128 13.6931 65.0485 13.6104C65.0154 13.5745 64.9753 13.5457 64.9307 13.5259C64.8861 13.506 64.8379 13.4955 64.7891 13.4949H58.9891C58.8687 13.5028 58.7526 13.5427 58.6527 13.6104C58.5169 13.6941 58.3894 13.7905 58.2717 13.8982C58.1491 14.009 58.0366 14.1304 57.9353 14.2609C57.8527 14.3615 57.7877 14.4752 57.7428 14.5973L56.4093 18.4579C56.3718 18.5673 56.3601 18.6837 56.3748 18.7984C56.3896 18.9212 56.4196 19.0416 56.464 19.1571C56.5043 19.2645 56.5664 19.3625 56.6464 19.4448C56.6791 19.4807 56.7188 19.5094 56.7631 19.5293C56.8074 19.5492 56.8552 19.5597 56.9038 19.5604H62.7159C62.8363 19.5521 62.9523 19.5123 63.0523 19.4448C63.1879 19.3617 63.3148 19.2653 63.4313 19.1571C63.5531 19.0482 63.6643 18.9281 63.7636 18.7984C63.8485 18.6961 63.9169 18.5813 63.9663 18.4579L65.2998 14.5973C65.3261 14.4871 65.3309 14.3729 65.314 14.2609V14.2609ZM62.6936 15.4039L61.9235 17.6534C61.9015 17.7046 61.8675 17.7498 61.8242 17.7851C61.7884 17.8214 61.7412 17.8443 61.6905 17.8499H59.0783C59.0588 17.8517 59.0393 17.846 59.0239 17.834C59.0084 17.8219 58.9982 17.8044 58.9952 17.7851C58.982 17.7422 58.982 17.6963 58.9952 17.6534L59.7673 15.4039C59.789 15.3553 59.8208 15.3117 59.8605 15.2762C59.8758 15.2567 59.8947 15.2404 59.9163 15.2283C59.9378 15.2161 59.9616 15.2083 59.9862 15.2053H62.6004C62.6193 15.2062 62.6374 15.2129 62.6523 15.2245C62.6671 15.2361 62.6781 15.2521 62.6835 15.2701C62.7039 15.3118 62.7076 15.3597 62.6936 15.4039V15.4039Z" fill="url(#paint5_linear_92_3564)"/>
<path d="M73.1039 13.8982C73.0631 13.791 73.001 13.6931 72.9215 13.6104C72.8884 13.5745 72.8483 13.5457 72.8037 13.5259C72.7591 13.506 72.7109 13.4955 72.6621 13.4949H67.1276C67.0071 13.5025 66.8909 13.5424 66.7912 13.6104C66.6554 13.6941 66.5279 13.7905 66.4102 13.8982C66.2876 14.009 66.1751 14.1304 66.0738 14.2609C65.9905 14.361 65.9253 14.4748 65.8813 14.5973L65.4395 15.8882C65.4238 15.9933 65.45 16.1002 65.5124 16.1861C65.5693 16.2689 65.6375 16.3433 65.7151 16.407L69.6527 17.8621H67.2208C67.1823 17.8621 67.156 17.8398 67.1377 17.7952C67.1215 17.7528 67.1215 17.7059 67.1377 17.6635L67.2147 17.4325H64.9004L64.5458 18.4579C64.509 18.5674 64.4979 18.6839 64.5133 18.7984C64.5273 18.9213 64.5573 19.0419 64.6025 19.1571C64.6416 19.2647 64.7031 19.3627 64.7829 19.4448C64.8161 19.4806 64.8562 19.5092 64.9008 19.529C64.9454 19.5489 64.9935 19.5595 65.0423 19.5604H70.5788C70.6992 19.5521 70.8152 19.5123 70.9152 19.4448C71.0508 19.3617 71.1777 19.2653 71.2942 19.1571C71.4153 19.0481 71.5259 18.928 71.6245 18.7984C71.7102 18.6967 71.7787 18.5817 71.8272 18.4579L72.2791 17.167C72.288 17.1175 72.2869 17.0666 72.2757 17.0175C72.2646 16.9684 72.2437 16.9221 72.2142 16.8813C72.1504 16.7948 72.0762 16.7166 71.9934 16.6482L68.0578 15.1931H70.4896C70.5261 15.1931 70.5525 15.2154 70.5707 15.26C70.5879 15.3022 70.5879 15.3495 70.5707 15.3917L70.4937 15.6228H72.8101L73.1627 14.5973C73.1929 14.4879 73.2019 14.3737 73.189 14.2609C73.1778 14.1366 73.1491 14.0145 73.1039 13.8982V13.8982Z" fill="#F4F4F4"/>
<path d="M81.1088 15.2033L81.6924 13.4949H74.1293L73.5457 15.2033H76.17L74.6684 19.5583H76.9847L78.4844 15.2033H81.1088Z" fill="#F4F4F4"/>
<path d="M83.5224 13.4949L78.4844 19.5604H81.0297L81.6377 18.8328H84.4161L84.5154 19.5604H86.8419L85.9806 13.4949H83.5224ZM84.3898 17.1001C84.3097 17.1722 84.2075 17.2149 84.0999 17.2212C83.9924 17.2275 83.8859 17.1969 83.798 17.1346H83.6845C83.6801 17.2173 83.7058 17.2987 83.7568 17.3639C83.8079 17.4292 83.8808 17.4737 83.9622 17.4892H83.0097C83.2183 17.4416 83.4001 17.3143 83.5163 17.1346H83.4028C83.1758 17.2622 82.9489 17.2521 82.8334 17.1001C82.7178 16.9481 82.7908 16.6543 83.036 16.4557C83.2042 16.3239 83.3724 16.1963 83.5427 16.0666L84.0756 15.6613C84.1689 15.8072 84.256 15.9389 84.3411 16.0666C84.4262 16.1942 84.5113 16.3239 84.5944 16.4557C84.648 16.5691 84.6567 16.6986 84.6187 16.8181C84.5808 16.9377 84.499 17.0384 84.3898 17.1001Z" fill="#F4F4F4"/>
<path d="M96.6608 14.2609C96.6502 14.1367 96.6222 14.0146 96.5777 13.8982C96.5369 13.791 96.4748 13.6931 96.3953 13.6104C96.3623 13.5744 96.3222 13.5456 96.2776 13.5257C96.233 13.5058 96.1848 13.4953 96.1359 13.4949H89.4483L87.365 19.5604H89.6813L91.179 15.2053H93.9472C93.9837 15.2053 94.0121 15.2276 94.0303 15.2762C94.0463 15.3173 94.0463 15.3628 94.0303 15.4039L93.7871 16.1091C93.7426 16.2409 93.6696 16.3118 93.5662 16.3118H91.337L90.9844 17.3251L92.6057 19.5745H95.2402L94.0709 17.9209H94.1803C94.4198 17.9193 94.658 17.8838 94.8876 17.8155C95.0673 17.7591 95.234 17.6675 95.378 17.546C95.5186 17.4218 95.6342 17.2718 95.7184 17.1042C95.8205 16.905 95.9072 16.6984 95.9779 16.4861L96.6284 14.6115C96.6626 14.498 96.6737 14.3788 96.6608 14.2609V14.2609Z" fill="#F4F4F4"/>
<path d="M29.1843 17.3778H28.3129L27.5631 19.5604H25.2488L27.3321 13.4949H29.6484L28.8986 15.6795H29.5491L32.1614 13.4949H34.9296L31.3244 16.5347L32.8463 19.5745H30.299L29.1843 17.3778Z" fill="url(#paint6_linear_92_3564)"/>
</g>
<defs>
<linearGradient id="paint0_linear_92_3564" x1="14.8142" y1="21.3925" x2="25.713" y2="21.3925" gradientUnits="userSpaceOnUse">
<stop stop-color="#B07908"/>
<stop offset="0.11" stop-color="#C89B2F"/>
<stop offset="0.24" stop-color="#E0BE55"/>
<stop offset="0.34" stop-color="#EFD36D"/>
<stop offset="0.41" stop-color="#F4DB76"/>
<stop offset="0.52" stop-color="#EACC65"/>
<stop offset="0.75" stop-color="#CFA53A"/>
<stop offset="0.97" stop-color="#B07908"/>
</linearGradient>
<linearGradient id="paint1_linear_92_3564" x1="5.44946" y1="15.3634" x2="49.7378" y2="15.3634" gradientUnits="userSpaceOnUse">
<stop stop-color="#B07908"/>
<stop offset="0.11" stop-color="#C89B2F"/>
<stop offset="0.24" stop-color="#E0BE55"/>
<stop offset="0.34" stop-color="#EFD36D"/>
<stop offset="0.41" stop-color="#F4DB76"/>
<stop offset="0.52" stop-color="#EACC65"/>
<stop offset="0.75" stop-color="#CFA53A"/>
<stop offset="0.97" stop-color="#B07908"/>
</linearGradient>
<linearGradient id="paint2_linear_92_3564" x1="20.4014" y1="20.3811" x2="69.2961" y2="9.71129" gradientUnits="userSpaceOnUse">
<stop stop-color="#B07908"/>
<stop offset="0.11" stop-color="#C89B2F"/>
<stop offset="0.24" stop-color="#E0BE55"/>
<stop offset="0.34" stop-color="#EFD36D"/>
<stop offset="0.41" stop-color="#F4DB76"/>
<stop offset="0.52" stop-color="#EACC65"/>
<stop offset="0.75" stop-color="#CFA53A"/>
<stop offset="0.97" stop-color="#B07908"/>
</linearGradient>
<linearGradient id="paint3_linear_92_3564" x1="20.76" y1="22.0226" x2="69.6547" y2="11.3528" gradientUnits="userSpaceOnUse">
<stop stop-color="#B07908"/>
<stop offset="0.11" stop-color="#C89B2F"/>
<stop offset="0.24" stop-color="#E0BE55"/>
<stop offset="0.34" stop-color="#EFD36D"/>
<stop offset="0.41" stop-color="#F4DB76"/>
<stop offset="0.52" stop-color="#EACC65"/>
<stop offset="0.75" stop-color="#CFA53A"/>
<stop offset="0.97" stop-color="#B07908"/>
</linearGradient>
<linearGradient id="paint4_linear_92_3564" x1="21.0924" y1="23.5466" x2="69.987" y2="12.8768" gradientUnits="userSpaceOnUse">
<stop stop-color="#B07908"/>
<stop offset="0.11" stop-color="#C89B2F"/>
<stop offset="0.24" stop-color="#E0BE55"/>
<stop offset="0.34" stop-color="#EFD36D"/>
<stop offset="0.41" stop-color="#F4DB76"/>
<stop offset="0.52" stop-color="#EACC65"/>
<stop offset="0.75" stop-color="#CFA53A"/>
<stop offset="0.97" stop-color="#B07908"/>
</linearGradient>
<linearGradient id="paint5_linear_92_3564" x1="21.435" y1="25.1273" x2="70.3297" y2="14.4575" gradientUnits="userSpaceOnUse">
<stop stop-color="#B07908"/>
<stop offset="0.11" stop-color="#C89B2F"/>
<stop offset="0.24" stop-color="#E0BE55"/>
<stop offset="0.34" stop-color="#EFD36D"/>
<stop offset="0.41" stop-color="#F4DB76"/>
<stop offset="0.52" stop-color="#EACC65"/>
<stop offset="0.75" stop-color="#CFA53A"/>
<stop offset="0.97" stop-color="#B07908"/>
</linearGradient>
<linearGradient id="paint6_linear_92_3564" x1="20.2412" y1="18.6768" x2="69.1359" y2="8.00696" gradientUnits="userSpaceOnUse">
<stop stop-color="#B07908"/>
<stop offset="0.11" stop-color="#C89B2F"/>
<stop offset="0.24" stop-color="#E0BE55"/>
<stop offset="0.34" stop-color="#EFD36D"/>
<stop offset="0.41" stop-color="#F4DB76"/>
<stop offset="0.52" stop-color="#EACC65"/>
<stop offset="0.75" stop-color="#CFA53A"/>
<stop offset="0.97" stop-color="#B07908"/>
</linearGradient>
<clipPath id="clip0_92_3564">
<rect width="96.6667" height="30" fill="white"/>
</clipPath>
</defs>
</svg>
